<svg width="40" viewBox="0 0 512 512" fill="none" xmlns="http://www.w3.org/2000/svg">
<g clip-path="url(#clip0_44_29)">
<path fill-rule="evenodd" clip-rule="evenodd" d="M1 256.5C1 115.391 115.391 -0.158691 256.5 -0.158691C397.609 -0.158691 512 115.391 512 256.5C512 397.609 397.609 513.159 256.5 513.159C115.391 513.159 1 397.609 1 256.5ZM165.504 116.278C165.504 116.278 168.739 137.557 174.61 163.043C143.243 170.208 119.178 178.201 119.178 178.201C119.178 178.201 127.014 211.139 140.847 243.535C114.415 250.286 96.0159 256.383 96.0159 256.383C96.0159 256.383 116.566 342.568 150.448 383.704C182.872 423.069 256.5 456.381 256.5 456.381C256.5 456.381 330.128 423.069 362.551 383.704C396.434 342.568 416.984 256.383 416.984 256.383C416.984 256.383 398.585 250.286 372.153 243.535C385.986 211.139 393.821 178.201 393.821 178.201C393.821 178.201 369.757 170.208 338.39 163.043C344.261 137.557 347.496 116.278 347.496 116.278C347.496 116.278 295.134 89.0635 256.5 89.0635C217.866 89.0635 165.504 116.278 165.504 116.278ZM292.073 293.579V166.698C292.073 166.698 273.579 157 260.787 157C247.996 157 229.502 166.698 229.502 166.698V290.103V305.051C229.502 313.857 228.806 319.419 227.416 321.737C226.257 323.127 221.506 324.054 213.164 324.518C204.821 324.981 197.405 325.097 190.916 324.865L185.702 364.841C203.083 367.854 219.652 369.36 235.411 369.36C250.243 369.36 261.714 366.579 269.825 361.018C278.168 355.456 283.962 347.229 287.206 336.337C290.451 325.445 292.073 311.192 292.073 293.579Z" fill="#768FDB"/>
</g>
<defs>
<clipPath id="clip0_44_29">
<rect width="512" height="512" fill="white"/>
</clipPath>
</defs>
</svg>
